# xmcd
#
# Track frame offsets:
#	150
#	16311
#	30668
#	46755
#	58974
#	71613
#	83410
#	94587
#	107061
#	123086
#	137653
#	151125
#	165429
#	178464
#	191636
#
# Disc length: 2758 seconds
#
# Revision: 1
# Processed by: cddbd v1.5.1PL0 Copyright (c) Steve Scherf et al.
# Submitted via: EasyCDDAExtractor 5.0.7
#
DISCID=bb0ac40f
DTITLE=Jimmy Gutierrez - Mejor que nunca
DYEAR=2005
DGENRE=Norteña
TTITLE0=Te deje de amar
TTITLE1=Vendo a mi suegra
TTITLE2=Me dolió en el alma
TTITLE3=Eres toda mia
TTITLE4=Me respetas o te largas
TTITLE5=El chueco
TTITLE6=Te saqué de mi vida
TTITLE7=Por ella
TTITLE8=No la puedo olvidar
TTITLE9=Por una mujer como tu
TTITLE10=Goticas de amor
TTITLE11=No me desprecies más
TTITLE12=Al fin me vieron llorar
TTITLE13=A los transportadores
TTITLE14=Enferma el alma
EXTD=
EXTT0=
EXTT1=
EXTT2=
EXTT3=
EXTT4=
EXTT5=
EXTT6=
EXTT7=
EXTT8=
EXTT9=
EXTT10=
EXTT11=
EXTT12=
EXTT13=
EXTT14=
PLAYORDER=
